PathFileType	4	(X/Y/Z)	statics_05.trc	
DataRate	CameraRate	NumFrames	NumMarkers	Units	OrigDataRate	OrigDataStartFrame	OrigNumFrames	
150.00	150.00	4	26	mm	150.00	541	720	
Frame#	Time	FT1			FT2			FT3			FT4			FT5			DP2			DP3			DP4			DP5			PP2			PP3			PP4			PP5			IP			MP1			MP2			MP3			MP4			MP5			CMC1			CMC2			CMC5			RS			US			EM			EL			
		X1	Y1	Z1	X2	Y2	Z2	X3	Y3	Z3	X4	Y4	Z4	X5	Y5	Z5	X6	Y6	Z6	X7	Y7	Z7	X8	Y8	Z8	X9	Y9	Z9	X10	Y10	Z10	X11	Y11	Z11	X12	Y12	Z12	X13	Y13	Z13	X14	Y14	Z14	X15	Y15	Z15	X16	Y16	Z16	X17	Y17	Z17	X18	Y18	Z18	X19	Y19	Z19	X20	Y20	Z20	X21	Y21	Z21	X22	Y22	Z22	X23	Y23	Z23	X24	Y24	Z24	X25	Y25	Z25	X26	Y26	Z26	

541	3.6	407.3819592382174	138.1697434542758	-176.08520860971848	427.948783171594	136.59300968071977	-274.60345737993987	465.22990542785857	136.28166316397906	-296.74606199755624	495.51417320201847	131.19555170339748	-296.26256133797546	532.8355586509929	132.1359752259622	-280.5813805684561	435.21545588421884	147.96280424736148	-258.30500210470973	469.677339565324	146.49932022037206	-279.30410942672535	502.567579479689	140.49451964659502	-279.2218278650049	538.268599028022	137.06424427539537	-262.983325982838	446.4372495121753	161.53934747343564	-235.44567884049238	475.7156061051813	162.84514923688323	-251.53265238276592	506.87341904002767	155.84083754919357	-252.4073456591096	540.7704281645836	143.12947914366083	-243.1901038432601	425.5843684088751	138.23997616311115	-161.43367268095187	447.22298839617713	144.75524054600027	-139.57029183036556	468.7322209003544	170.84699408825685	-193.56785725654228	495.93469536503295	172.3909660322879	-204.68296198453257	516.0928158868367	163.3273807701071	-207.13715387515896	538.0069961645397	149.89265176643846	-209.8328747662814	480.7026261372966	147.2428528503006	-119.27696592448986	497.8229022548744	172.9588258279656	-158.36448375695014	534.5584934154095	162.81818251124423	-173.16238924023395	521.153946105342	166.33339496004035	-99.4476815738599	562.7175905220784	165.740714810945	-128.066729342045	671.9787192964087	41.588987232268956	103.15134637975294	725.2038975022191	92.24855812820176	77.5319632826986	
542	3.60667	407.3318018064028	138.18943987361547	-176.06699552938466	427.88949532415256	136.61725503363817	-274.58510319709933	465.1644269268617	136.3066078099118	-296.7320404875212	495.45066122940693	131.21408802243238	-296.25328784756607	532.7722981331085	132.14911641206263	-280.57367148448554	435.1564057557776	147.9846141539393	-258.28586290026755	469.6169863035021	146.52093492286198	-279.2902295064317	502.5056892549327	140.5136064762354	-279.2106293798524	538.2082369576754	137.0762629086028	-262.9777530705593	446.3857372201642	161.5599484099307	-235.42657789206547	475.658423652838	162.8638540623262	-251.51679149026637	506.8148073521835	155.85560964669048	-252.39407315153213	540.7134829803579	143.1395512781837	-243.1809302969634	425.536225264524	138.25841663195618	-161.41453237514594	447.17563278522	144.77277721112478	-139.55321396595843	468.684182094892	170.86496907509581	-193.5525560983728	495.8855275937802	172.4035374684651	-204.66355763711226	516.0396081520971	163.34346916859664	-207.12646211114136	537.9548018400789	149.90506237637868	-209.82650845166648	480.65864236744113	147.25601950602524	-119.26395364340658	497.77666040311266	172.97306007434227	-158.35164366727304	534.5053898982402	162.82921930362946	-173.15131049012277	521.1164052707179	166.340852067766	-99.43757507977973	562.6750735262049	165.74584843468315	-128.05882279733018	671.9580919847788	41.580889089953835	103.13780610126024	725.179445432188	92.24399518119878	77.51660206742748	
543	3.61333	407.28422163141767	138.21008020682746	-176.05250378892134	427.8339187694417	136.645110396796	-274.57033568279815	465.10235261047706	136.33710793338452	-296.72154564554955	495.39049755944467	131.2382787150365	-296.24676409029706	532.7122258399796	132.16614211753313	-280.5683784787894	435.1005323579392	148.0095903617543	-258.27015615108274	469.5592710393449	146.54654878274502	-279.27891415284984	502.44707634549803	140.53710720606895	-279.2012620000008	538.1506649505255	137.09234763080147	-262.97423957519254	446.3363116295028	161.58365212447424	-235.41029390970465	475.60308291384587	162.88696222595775	-251.50308348385533	506.7592538298924	155.87466829779376	-252.38407222132543	540.6594633319196	143.15292617924146	-243.17382889394295	425.4883858456479	138.2784090260052	-161.39913959882847	447.1287506290491	144.79182814074426	-139.5392839809036	468.63903540820485	170.8839051803444	-193.539749368982	495.835464802888	172.41929411551158	-204.6452405574736	515.9885379400216	163.36104690380662	-207.11740461476558	537.9046584278917	149.91977949438825	-209.8216639111656	480.61355602984366	147.27058501499116	-119.25393570691364	497.73250188043016	172.9879923935491	-158.3402543348096	534.4515832582287	162.84079310725957	-173.13990184491144	521.078493483624	166.34879180413532	-99.42921372695197	562.6332998246367	165.751560166269	-128.05182605932598	671.9359357027272	41.57380850390666	103.12356052714794	725.1524857765611	92.239824153442	77.50000283405873	
544	3.62	407.23896021447905	138.23176035062758	-176.0416888081139	427.78175170354507	136.67646424123396	-274.5592964614373	465.04374449960585	136.37217033926146	-296.7144723562745	495.3336449731905	131.26799788494932	-296.24294149916363	532.6554799956667	132.18700975492933	-280.56546331387295	435.0479090281155	148.037489334204	-258.25800185752377	469.5040823937044	146.57580701625508	-279.2702957622787	502.3918731042029	140.56445437660412	-279.19396097266326	538.096266892129	137.11237870521123	-262.97275938183833	446.2887050526557	161.61020844078897	-235.3970815764881	475.5499843490577	162.9140274679233	-251.49171728630532	506.7069474579612	155.8976934005404	-252.37730892054688	540.608395657706	143.16947845371664	-243.1688012974273	425.4409720208425	138.29983801889202	-161.3875560295278	447.08238792842957	144.81198426463925	-139.5286371724278	468.59639007812217	170.90362443325773	-193.5297630188409	495.78498560779906	172.4377871514571	-204.6286406683711	515.9398493357071	163.37982426964956	-207.11021518360474	537.8564730334597	149.93648167798193	-209.81845556476063	480.567553027821	147.2862956224588	-119.24712998441397	497.6903178943976	173.00317045591208	-158.33062042451928	534.3980585906738	162.85242991971165	-173.1288285864171	521.0399294008981	166.3568573166057	-99.42283578030582	562.5923611551299	165.75777634052352	-128.0461603270073	671.9124418224619	41.568018315203254	103.10873282984434	725.1233272920667	92.23619268184487	77.48223910421311	
